<svg width="21" height="21" viewBox="0 0 21 21" fill="none" xmlns="http://www.w3.org/2000/svg">
<path d="M18.2968 4.17416C18.1306 3.74315 17.8759 3.35174 17.5493 3.02511C17.2227 2.69847 16.8313 2.44385 16.4002 2.27765C16.049 2.14068 15.5199 1.97796 14.5447 1.93348C13.4911 1.88548 13.1762 1.87494 10.5082 1.87494C7.8402 1.87494 7.52411 1.88548 6.47049 1.93348C5.49648 1.97796 4.96734 2.14068 4.61496 2.27765C4.18425 2.44436 3.79309 2.69913 3.46652 3.02571C3.13995 3.35228 2.88515 3.74345 2.71845 4.17416C2.58148 4.52536 2.41992 5.05569 2.37427 6.0297C2.32627 7.08332 2.3169 7.39941 2.3169 10.0674C2.3169 12.7354 2.32627 13.0515 2.37427 14.1039C2.41992 15.0791 2.58148 15.6071 2.71845 15.9594C2.88465 16.3904 3.13926 16.7819 3.4659 17.1085C3.79254 17.4352 4.18396 17.6898 4.61496 17.856C4.96617 17.9929 5.49648 18.1557 6.47049 18.2001C7.52411 18.2481 7.8402 18.2587 10.5082 18.2587C13.1762 18.2587 13.4923 18.2481 14.5447 18.2001C15.5199 18.1557 16.049 17.9929 16.4002 17.856C16.8315 17.6902 17.2232 17.4358 17.5499 17.1091C17.8766 16.7824 18.131 16.3907 18.2968 15.9594C18.4337 15.6082 18.5965 15.0791 18.6409 14.1039C18.6889 13.0503 18.6995 12.7354 18.6995 10.0674C18.6995 7.39941 18.6889 7.08332 18.6409 6.0297C18.5965 5.05569 18.4337 4.52653 18.2968 4.17416ZM10.5082 15.1973C9.4933 15.1973 8.50121 14.8964 7.65737 14.3325C6.81354 13.7686 6.15587 12.9672 5.76755 12.0296C5.37922 11.0919 5.27767 10.0601 5.47575 9.06477C5.67383 8.0694 6.16264 7.15511 6.88036 6.43756C7.59808 5.72001 8.51246 5.23142 9.50788 5.03356C10.5033 4.83571 11.535 4.93749 12.4726 5.32604C13.4102 5.71458 14.2115 6.37241 14.7751 7.21637C15.3388 8.06033 15.6395 9.05251 15.6393 10.0674C15.6393 10.7412 15.5066 11.4083 15.2487 12.0308C14.9908 12.6533 14.6128 13.2188 14.1364 13.6952C13.6599 14.1716 13.0942 14.5495 12.4717 14.8072C11.8492 15.0649 11.182 15.1975 10.5082 15.1973ZM15.8418 5.93253C15.6047 5.93253 15.373 5.86221 15.1758 5.73049C14.9787 5.59876 14.825 5.41155 14.7343 5.1925C14.6436 4.97346 14.6198 4.73241 14.6661 4.49987C14.7123 4.26733 14.8265 4.05374 14.9942 3.88609C15.1618 3.71843 15.3754 3.60426 15.608 3.558C15.8405 3.51175 16.0815 3.53549 16.3006 3.62623C16.5196 3.71696 16.7069 3.87061 16.8386 4.06775C16.9703 4.26489 17.0406 4.49665 17.0406 4.73375C17.0406 5.05168 16.9143 5.35659 16.6895 5.58141C16.4647 5.80622 16.1598 5.93253 15.8418 5.93253ZM10.5082 6.7368C9.84946 6.7368 9.20552 6.93214 8.65781 7.29811C8.1101 7.66408 7.6832 8.18423 7.43112 8.79282C7.17903 9.40141 7.11307 10.0711 7.24159 10.7172C7.3701 11.3632 7.68731 11.9567 8.1531 12.4225C8.61889 12.8883 9.21235 13.2055 9.85842 13.334C10.5045 13.4625 11.1742 13.3966 11.7828 13.1445C12.3913 12.8924 12.9115 12.4655 13.2775 11.9178C13.6435 11.3701 13.8388 10.7261 13.8388 10.0674C13.8388 9.18407 13.4879 8.33692 12.8633 7.71231C12.2387 7.0877 11.3915 6.7368 10.5082 6.7368ZM20.4391 14.187C20.3911 15.25 20.2214 15.9758 19.9708 16.6115C19.7142 17.2765 19.3212 17.8805 18.8171 18.3846C18.3131 18.8886 17.7091 19.2816 17.0441 19.5382C16.4096 19.7852 15.6826 19.955 14.6196 20.0065C13.5567 20.058 13.2148 20.0674 10.5 20.0674C7.78518 20.0674 7.44568 20.0557 6.38035 20.0065C5.31503 19.9573 4.59037 19.7888 3.95469 19.5382C3.28945 19.2819 2.68531 18.8891 2.18121 18.385C1.67711 17.8809 1.28426 17.2768 1.02798 16.6115C0.780964 15.9758 0.612385 15.25 0.559704 14.187C0.507023 13.1241 0.5 12.7822 0.5 10.0674C0.5 7.35258 0.511706 7.01306 0.559704 5.94773C0.607702 4.88241 0.777452 4.15776 1.02798 3.52208C1.28426 2.85684 1.67711 2.25271 2.18121 1.74861C2.68531 1.24452 3.28945 0.851644 3.95469 0.595363C4.59037 0.348348 5.3162 0.178599 6.38035 0.127089C7.44451 0.0755788 7.78518 0.0673828 10.5 0.0673828C13.2148 0.0673828 13.5531 0.0779201 14.6196 0.127089C15.6861 0.176258 16.4096 0.344836 17.0441 0.595363C17.7091 0.852025 18.3131 1.24502 18.8171 1.74907C19.3212 2.25312 19.7142 2.85706 19.9708 3.52208C20.2167 4.15776 20.3864 4.88358 20.4391 5.94773C20.4918 7.01189 20.5 7.35258 20.5 10.0674C20.5 12.7822 20.4883 13.1205 20.4391 14.187Z" fill="#777777"/>
</svg>
