<svg width="25" height="17" viewBox="0 0 25 17" fill="none" xmlns="http://www.w3.org/2000/svg">
<path d="M23.9989 2.70807C23.8634 2.19727 23.5961 1.73103 23.2237 1.35603C22.8514 0.981026 22.3871 0.710419 21.8772 0.571305C20.0048 0.0674043 12.5 0.0673828 12.5 0.0673828C12.5 0.0673828 4.99518 0.0674043 3.12414 0.571305C2.61432 0.710419 2.14999 0.981026 1.77765 1.35603C1.4053 1.73103 1.13801 2.19727 1.00253 2.70807C0.500003 4.5915 0.5 8.5222 0.5 8.5222C0.5 8.5222 0.500003 12.4515 1.00253 14.3363C1.13797 14.847 1.40527 15.3131 1.77764 15.6879C2.15001 16.0627 2.61436 16.333 3.12414 16.4717C4.99518 16.977 12.5 16.977 12.5 16.977C12.5 16.977 20.0048 16.977 21.8772 16.4717C22.387 16.333 22.8514 16.0627 23.2237 15.6879C23.5961 15.3131 23.8634 14.847 23.9989 14.3363C24.5 12.4515 24.5 8.5222 24.5 8.5222C24.5 8.5222 24.5 4.5915 23.9989 2.70807ZM10.0466 12.0922V4.95495L16.3192 8.52358L10.0466 12.0922Z" fill="#777777"/>
</svg>
